<svg width="81" height="18" viewBox="0 0 81 18" fill="none" xmlns="http://www.w3.org/2000/svg">
<path d="M0.76 8C0.76 5.66667 1.27333 3.87333 2.3 2.62C3.32667 1.35333 4.79333 0.719999 6.7 0.719999C7.7 0.719999 8.57333 0.893333 9.32 1.24C10.0667 1.58667 10.6867 2.08 11.18 2.72C11.6733 3.36 12.04 4.12667 12.28 5.02C12.52 5.91333 12.64 6.90667 12.64 8C12.64 10.3333 12.12 12.1333 11.08 13.4C10.0533 14.6533 8.59333 15.28 6.7 15.28C5.68667 15.28 4.80667 15.1067 4.06 14.76C3.31333 14.4133 2.69333 13.92 2.2 13.28C1.72 12.64 1.36 11.8733 1.12 10.98C0.88 10.0867 0.76 9.09333 0.76 8ZM3.64 8C3.64 8.70667 3.7 9.36 3.82 9.96C3.94 10.5467 4.12 11.0533 4.36 11.48C4.61333 11.9067 4.93333 12.24 5.32 12.48C5.70667 12.72 6.16667 12.84 6.7 12.84C7.67333 12.84 8.42667 12.46 8.96 11.7C9.49333 10.94 9.76 9.70667 9.76 8C9.76 7.32 9.7 6.68667 9.58 6.1C9.47333 5.51333 9.3 5 9.06 4.56C8.82 4.12 8.50667 3.78 8.12 3.54C7.73333 3.28667 7.26 3.16 6.7 3.16C5.72667 3.16 4.97333 3.55333 4.44 4.34C3.90667 5.11333 3.64 6.33333 3.64 8ZM28.6292 14.42C28.2026 14.7267 27.6559 14.9467 26.9892 15.08C26.3359 15.2133 25.6626 15.28 24.9692 15.28C24.1292 15.28 23.3292 15.1533 22.5692 14.9C21.8226 14.6333 21.1626 14.2133 20.5892 13.64C20.0159 13.0533 19.5559 12.3 19.2092 11.38C18.8759 10.4467 18.7092 9.32 18.7092 8C18.7092 6.62667 18.8959 5.48 19.2692 4.56C19.6559 3.62667 20.1492 2.88 20.7492 2.32C21.3626 1.74667 22.0426 1.34 22.7892 1.1C23.5359 0.846666 24.2826 0.719999 25.0292 0.719999C25.8292 0.719999 26.5026 0.773333 27.0492 0.879999C27.6092 0.986666 28.0692 1.11333 28.4292 1.26L27.8892 3.58C27.5826 3.43333 27.2159 3.32667 26.7892 3.26C26.3759 3.19333 25.8692 3.16 25.2692 3.16C24.1626 3.16 23.2692 3.55333 22.5892 4.34C21.9226 5.12667 21.5892 6.34667 21.5892 8C21.5892 8.72 21.6692 9.38 21.8292 9.98C21.9892 10.5667 22.2292 11.0733 22.5492 11.5C22.8826 11.9133 23.2892 12.24 23.7692 12.48C24.2626 12.7067 24.8292 12.82 25.4692 12.82C26.0692 12.82 26.5759 12.76 26.9892 12.64C27.4026 12.52 27.7626 12.3667 28.0692 12.18L28.6292 14.42ZM37.5384 14.14C37.1384 14.46 36.5918 14.7333 35.8984 14.96C35.2184 15.1733 34.4918 15.28 33.7184 15.28C32.1051 15.28 30.9251 14.8133 30.1784 13.88C29.4318 12.9333 29.0584 11.64 29.0584 10C29.0584 8.24 29.4784 6.92 30.3184 6.04C31.1584 5.16 32.3384 4.72 33.8584 4.72C34.3651 4.72 34.8584 4.78667 35.3384 4.92C35.8184 5.05333 36.2451 5.27333 36.6184 5.58C36.9918 5.88667 37.2918 6.3 37.5184 6.82C37.7451 7.34 37.8584 7.98667 37.8584 8.76C37.8584 9.04 37.8384 9.34 37.7984 9.66C37.7718 9.98 37.7251 10.3133 37.6584 10.66H31.6584C31.6984 11.5 31.9118 12.1333 32.2984 12.56C32.6984 12.9867 33.3384 13.2 34.2184 13.2C34.7651 13.2 35.2518 13.12 35.6784 12.96C36.1184 12.7867 36.4518 12.6133 36.6784 12.44L37.5384 14.14ZM33.8184 6.8C33.1384 6.8 32.6318 7.00667 32.2984 7.42C31.9784 7.82 31.7851 8.36 31.7184 9.04H35.4384C35.4918 8.32 35.3784 7.76667 35.0984 7.38C34.8318 6.99333 34.4051 6.8 33.8184 6.8ZM49.4198 17.28H47.5198L47.2198 15H40.4998L40.1998 17.28H38.2998V12.7H39.4798C39.5865 12.5533 39.7198 12.3067 39.8798 11.96C40.0532 11.6 40.2198 11.1133 40.3798 10.5C40.5532 9.88667 40.6998 9.12667 40.8198 8.22C40.9398 7.31333 40.9998 6.24 40.9998 5H47.9598V12.7H49.4198V17.28ZM45.3598 12.82V7.2H43.2598C43.2332 7.68 43.1865 8.19333 43.1198 8.74C43.0532 9.27333 42.9665 9.79333 42.8598 10.3C42.7665 10.8067 42.6532 11.28 42.5198 11.72C42.3865 12.16 42.2398 12.5267 42.0798 12.82H45.3598ZM50.367 10C50.367 8.30667 50.7804 7.00667 51.607 6.1C52.4337 5.18 53.5937 4.72 55.087 4.72C55.887 4.72 56.5804 4.84667 57.167 5.1C57.7537 5.35333 58.2404 5.71333 58.627 6.18C59.0137 6.63333 59.3004 7.18667 59.487 7.84C59.687 8.49333 59.787 9.21333 59.787 10C59.787 11.6933 59.3737 13 58.547 13.92C57.7337 14.8267 56.5804 15.28 55.087 15.28C54.287 15.28 53.5937 15.1533 53.007 14.9C52.4204 14.6467 51.927 14.2933 51.527 13.84C51.1404 13.3733 50.847 12.8133 50.647 12.16C50.4604 11.5067 50.367 10.7867 50.367 10ZM53.047 10C53.047 10.44 53.087 10.8467 53.167 11.22C53.247 11.5933 53.367 11.92 53.527 12.2C53.687 12.48 53.8937 12.7 54.147 12.86C54.4137 13.0067 54.727 13.08 55.087 13.08C55.767 13.08 56.2737 12.8333 56.607 12.34C56.9404 11.8467 57.107 11.0667 57.107 10C57.107 9.08 56.9537 8.34 56.647 7.78C56.3404 7.20667 55.8204 6.92 55.087 6.92C54.447 6.92 53.947 7.16 53.587 7.64C53.227 8.12 53.047 8.90667 53.047 10ZM67.4492 11.06H64.1892V15H61.5892V5H64.1892V8.76H67.4492V5H70.0492V15H67.4492V11.06ZM80.3314 14.14C79.9314 14.46 79.3847 14.7333 78.6914 14.96C78.0114 15.1733 77.2847 15.28 76.5114 15.28C74.8981 15.28 73.7181 14.8133 72.9714 13.88C72.2247 12.9333 71.8514 11.64 71.8514 10C71.8514 8.24 72.2714 6.92 73.1114 6.04C73.9514 5.16 75.1314 4.72 76.6514 4.72C77.1581 4.72 77.6514 4.78667 78.1314 4.92C78.6114 5.05333 79.0381 5.27333 79.4114 5.58C79.7847 5.88667 80.0847 6.3 80.3114 6.82C80.5381 7.34 80.6514 7.98667 80.6514 8.76C80.6514 9.04 80.6314 9.34 80.5914 9.66C80.5647 9.98 80.5181 10.3133 80.4514 10.66H74.4514C74.4914 11.5 74.7047 12.1333 75.0914 12.56C75.4914 12.9867 76.1314 13.2 77.0114 13.2C77.5581 13.2 78.0447 13.12 78.4714 12.96C78.9114 12.7867 79.2447 12.6133 79.4714 12.44L80.3314 14.14ZM76.6114 6.8C75.9314 6.8 75.4247 7.00667 75.0914 7.42C74.7714 7.82 74.5781 8.36 74.5114 9.04H78.2314C78.2847 8.32 78.1714 7.76667 77.8914 7.38C77.6247 6.99333 77.1981 6.8 76.6114 6.8Z" fill="black"/>
</svg>
